<?xml version="1.0" encoding="UTF-8" standalone="no"?>
<!DOCTYPE svg PUBLIC "-//W3C//DTD SVG 1.1//EN"
 "http://www.w3.org/Graphics/SVG/1.1/DTD/svg11.dtd">
<!-- Generated by graphviz version 2.47.2 (20210527.0053)
 -->
<!-- Title: G Pages: 1 -->
<svg width="867pt" height="365pt"
 viewBox="0.00 0.00 867.20 364.66" xmlns="http://www.w3.org/2000/svg" xmlns:xlink="http://www.w3.org/1999/xlink">
<g id="graph0" class="graph" transform="scale(1 1) rotate(0) translate(21.6 343.06)">
<title>G</title>
<polygon fill="#111111" stroke="transparent" points="-21.6,21.6 -21.6,-343.06 845.6,-343.06 845.6,21.6 -21.6,21.6"/>
<!-- StyleSheet.ts -->
<g id="node1" class="node">
<title>StyleSheet.ts</title>
<path fill="none" stroke="#c6c5fe" d="M687.33,-63C687.33,-63 606.67,-63 606.67,-63 602.83,-63 599,-59.17 599,-55.33 599,-55.33 599,-47.67 599,-47.67 599,-43.83 602.83,-40 606.67,-40 606.67,-40 687.33,-40 687.33,-40 691.17,-40 695,-43.83 695,-47.67 695,-47.67 695,-55.33 695,-55.33 695,-59.17 691.17,-63 687.33,-63"/>
<text text-anchor="middle" x="647" y="-47.8" font-family="Arial" font-size="14.00" fill="#c6c5fe">StyleSheet.ts</text>
</g>
<!-- constants.ts -->
<g id="node2" class="node">
<title>constants.ts</title>
<path fill="none" stroke="#cfffac" d="M816.33,-43C816.33,-43 742.67,-43 742.67,-43 738.83,-43 735,-39.17 735,-35.33 735,-35.33 735,-27.67 735,-27.67 735,-23.83 738.83,-20 742.67,-20 742.67,-20 816.33,-20 816.33,-20 820.17,-20 824,-23.83 824,-27.67 824,-27.67 824,-35.33 824,-35.33 824,-39.17 820.17,-43 816.33,-43"/>
<text text-anchor="middle" x="779.5" y="-27.8" font-family="Arial" font-size="14.00" fill="#cfffac">constants.ts</text>
</g>
<!-- StyleSheet.ts&#45;&gt;constants.ts -->
<g id="edge1" class="edge">
<title>StyleSheet.ts&#45;&gt;constants.ts</title>
<path fill="none" stroke="#757575" d="M695.11,-44.28C704.76,-42.8 714.98,-41.24 724.83,-39.72"/>
<polygon fill="#757575" stroke="#757575" points="725.58,-43.15 734.93,-38.18 724.52,-36.23 725.58,-43.15"/>
</g>
<!-- component.tsx -->
<g id="node3" class="node">
<title>component.tsx</title>
<path fill="none" stroke="#c6c5fe" d="M203.33,-183C203.33,-183 113.67,-183 113.67,-183 109.83,-183 106,-179.17 106,-175.33 106,-175.33 106,-167.67 106,-167.67 106,-163.83 109.83,-160 113.67,-160 113.67,-160 203.33,-160 203.33,-160 207.17,-160 211,-163.83 211,-167.67 211,-167.67 211,-175.33 211,-175.33 211,-179.17 207.17,-183 203.33,-183"/>
<text text-anchor="middle" x="158.5" y="-167.8" font-family="Arial" font-size="14.00" fill="#c6c5fe">component.tsx</text>
</g>
<!-- makeClasses.ts -->
<g id="node4" class="node">
<title>makeClasses.ts</title>
<path fill="none" stroke="#c6c5fe" d="M352.33,-144C352.33,-144 254.67,-144 254.67,-144 250.83,-144 247,-140.17 247,-136.33 247,-136.33 247,-128.67 247,-128.67 247,-124.83 250.83,-121 254.67,-121 254.67,-121 352.33,-121 352.33,-121 356.17,-121 360,-124.83 360,-128.67 360,-128.67 360,-136.33 360,-136.33 360,-140.17 356.17,-144 352.33,-144"/>
<text text-anchor="middle" x="303.5" y="-128.8" font-family="Arial" font-size="14.00" fill="#c6c5fe">makeClasses.ts</text>
</g>
<!-- component.tsx&#45;&gt;makeClasses.ts -->
<g id="edge2" class="edge">
<title>component.tsx&#45;&gt;makeClasses.ts</title>
<path fill="none" stroke="#757575" d="M202.02,-159.9C217.15,-155.78 234.37,-151.08 250.23,-146.75"/>
<polygon fill="#757575" stroke="#757575" points="251.17,-150.13 259.9,-144.12 249.33,-143.37 251.17,-150.13"/>
</g>
<!-- types.ts -->
<g id="node5" class="node">
<title>types.ts</title>
<path fill="none" stroke="#cfffac" d="M670.83,-302C670.83,-302 623.17,-302 623.17,-302 619.33,-302 615.5,-298.17 615.5,-294.33 615.5,-294.33 615.5,-286.67 615.5,-286.67 615.5,-282.83 619.33,-279 623.17,-279 623.17,-279 670.83,-279 670.83,-279 674.67,-279 678.5,-282.83 678.5,-286.67 678.5,-286.67 678.5,-294.33 678.5,-294.33 678.5,-298.17 674.67,-302 670.83,-302"/>
<text text-anchor="middle" x="647" y="-286.8" font-family="Arial" font-size="14.00" fill="#cfffac">types.ts</text>
</g>
<!-- component.tsx&#45;&gt;types.ts -->
<g id="edge3" class="edge">
<title>component.tsx&#45;&gt;types.ts</title>
<path fill="none" stroke="#757575" d="M174.1,-183.11C209.52,-210.37 303.88,-277.55 396,-296.5 468.45,-311.4 555.2,-303.81 605.13,-297.07"/>
<polygon fill="#757575" stroke="#757575" points="605.79,-300.51 615.2,-295.65 604.81,-293.58 605.79,-300.51"/>
</g>
<!-- makeClasses.ts&#45;&gt;types.ts -->
<g id="edge21" class="edge">
<title>makeClasses.ts&#45;&gt;types.ts</title>
<path fill="none" stroke="#757575" d="M342.81,-144.11C393.7,-160.23 485.72,-191.82 559,-230.5 582.08,-242.68 606.36,-259.84 623.39,-272.69"/>
<polygon fill="#757575" stroke="#757575" points="621.52,-275.67 631.59,-278.97 625.78,-270.11 621.52,-275.67"/>
</g>
<!-- getUniqueId.ts -->
<g id="node7" class="node">
<title>getUniqueId.ts</title>
<path fill="none" stroke="#cfffac" d="M691.33,-144C691.33,-144 602.67,-144 602.67,-144 598.83,-144 595,-140.17 595,-136.33 595,-136.33 595,-128.67 595,-128.67 595,-124.83 598.83,-121 602.67,-121 602.67,-121 691.33,-121 691.33,-121 695.17,-121 699,-124.83 699,-128.67 699,-128.67 699,-136.33 699,-136.33 699,-140.17 695.17,-144 691.33,-144"/>
<text text-anchor="middle" x="647" y="-128.8" font-family="Arial" font-size="14.00" fill="#cfffac">getUniqueId.ts</text>
</g>
<!-- makeClasses.ts&#45;&gt;getUniqueId.ts -->
<g id="edge18" class="edge">
<title>makeClasses.ts&#45;&gt;getUniqueId.ts</title>
<path fill="none" stroke="#757575" d="M348.4,-120.9C363.38,-117.48 380.32,-114.19 396,-112.5 468.03,-104.72 487.02,-104.33 559,-112.5 570.55,-113.81 582.81,-116.07 594.36,-118.61"/>
<polygon fill="#757575" stroke="#757575" points="593.76,-122.07 604.29,-120.9 595.33,-115.24 593.76,-122.07"/>
</g>
<!-- helpers.ts -->
<g id="node8" class="node">
<title>helpers.ts</title>
<path fill="none" stroke="#c6c5fe" d="M507.33,-262C507.33,-262 447.67,-262 447.67,-262 443.83,-262 440,-258.17 440,-254.33 440,-254.33 440,-246.67 440,-246.67 440,-242.83 443.83,-239 447.67,-239 447.67,-239 507.33,-239 507.33,-239 511.17,-239 515,-242.83 515,-246.67 515,-246.67 515,-254.33 515,-254.33 515,-258.17 511.17,-262 507.33,-262"/>
<text text-anchor="middle" x="477.5" y="-246.8" font-family="Arial" font-size="14.00" fill="#c6c5fe">helpers.ts</text>
</g>
<!-- makeClasses.ts&#45;&gt;helpers.ts -->
<g id="edge19" class="edge">
<title>makeClasses.ts&#45;&gt;helpers.ts</title>
<path fill="none" stroke="#757575" d="M321.31,-144.03C351.62,-164.83 415.6,-208.72 451.22,-233.16"/>
<polygon fill="#757575" stroke="#757575" points="449.4,-236.15 459.63,-238.92 453.36,-230.38 449.4,-236.15"/>
</g>
<!-- style.ts -->
<g id="node9" class="node">
<title>style.ts</title>
<path fill="none" stroke="#c6c5fe" d="M499.33,-144C499.33,-144 455.67,-144 455.67,-144 451.83,-144 448,-140.17 448,-136.33 448,-136.33 448,-128.67 448,-128.67 448,-124.83 451.83,-121 455.67,-121 455.67,-121 499.33,-121 499.33,-121 503.17,-121 507,-124.83 507,-128.67 507,-128.67 507,-136.33 507,-136.33 507,-140.17 503.17,-144 499.33,-144"/>
<text text-anchor="middle" x="477.5" y="-128.8" font-family="Arial" font-size="14.00" fill="#c6c5fe">style.ts</text>
</g>
<!-- makeClasses.ts&#45;&gt;style.ts -->
<g id="edge20" class="edge">
<title>makeClasses.ts&#45;&gt;style.ts</title>
<path fill="none" stroke="#757575" d="M360.34,-132.5C385.69,-132.5 415.04,-132.5 437.9,-132.5"/>
<polygon fill="#757575" stroke="#757575" points="437.91,-136 447.91,-132.5 437.91,-129 437.91,-136"/>
</g>
<!-- getUniqueClassName.ts -->
<g id="node10" class="node">
<title>getUniqueClassName.ts</title>
<path fill="none" stroke="#cfffac" d="M551.33,-64C551.33,-64 403.67,-64 403.67,-64 399.83,-64 396,-60.17 396,-56.33 396,-56.33 396,-48.67 396,-48.67 396,-44.83 399.83,-41 403.67,-41 403.67,-41 551.33,-41 551.33,-41 555.17,-41 559,-44.83 559,-48.67 559,-48.67 559,-56.33 559,-56.33 559,-60.17 555.17,-64 551.33,-64"/>
<text text-anchor="middle" x="477.5" y="-48.8" font-family="Arial" font-size="14.00" fill="#cfffac">getUniqueClassName.ts</text>
</g>
<!-- makeClasses.ts&#45;&gt;getUniqueClassName.ts -->
<g id="edge17" class="edge">
<title>makeClasses.ts&#45;&gt;getUniqueClassName.ts</title>
<path fill="none" stroke="#757575" d="M332.23,-120.98C341.31,-116.83 351.29,-111.84 360,-106.5 377.28,-95.91 378.08,-87.98 396,-78.5 404.01,-74.26 412.83,-70.56 421.61,-67.37"/>
<polygon fill="#757575" stroke="#757575" points="422.76,-70.68 431.08,-64.12 420.49,-64.06 422.76,-70.68"/>
</g>
<!-- css.ts -->
<g id="node6" class="node">
<title>css.ts</title>
<path fill="none" stroke="#c6c5fe" d="M322.83,-223C322.83,-223 284.17,-223 284.17,-223 280.33,-223 276.5,-219.17 276.5,-215.33 276.5,-215.33 276.5,-207.67 276.5,-207.67 276.5,-203.83 280.33,-200 284.17,-200 284.17,-200 322.83,-200 322.83,-200 326.67,-200 330.5,-203.83 330.5,-207.67 330.5,-207.67 330.5,-215.33 330.5,-215.33 330.5,-219.17 326.67,-223 322.83,-223"/>
<text text-anchor="middle" x="303.5" y="-207.8" font-family="Arial" font-size="14.00" fill="#c6c5fe">css.ts</text>
</g>
<!-- css.ts&#45;&gt;types.ts -->
<g id="edge7" class="edge">
<title>css.ts&#45;&gt;types.ts</title>
<path fill="none" stroke="#757575" d="M317.6,-223.24C334.4,-237.5 365.07,-260.97 396,-271.5 466.59,-295.53 554.66,-295.91 605.2,-293.53"/>
<polygon fill="#757575" stroke="#757575" points="605.6,-297.01 615.4,-292.99 605.23,-290.02 605.6,-297.01"/>
</g>
<!-- css.ts&#45;&gt;getUniqueId.ts -->
<g id="edge4" class="edge">
<title>css.ts&#45;&gt;getUniqueId.ts</title>
<path fill="none" stroke="#757575" d="M330.54,-205.68C376.64,-195.35 475.62,-173.06 559,-153.5 568.64,-151.24 578.88,-148.8 588.81,-146.41"/>
<polygon fill="#757575" stroke="#757575" points="589.71,-149.8 598.62,-144.05 588.07,-142.99 589.71,-149.8"/>
</g>
<!-- css.ts&#45;&gt;helpers.ts -->
<g id="edge5" class="edge">
<title>css.ts&#45;&gt;helpers.ts</title>
<path fill="none" stroke="#757575" d="M330.62,-217.42C356.91,-223.38 398.02,-232.7 429.9,-239.93"/>
<polygon fill="#757575" stroke="#757575" points="429.38,-243.4 439.9,-242.2 430.92,-236.58 429.38,-243.4"/>
</g>
<!-- css.ts&#45;&gt;style.ts -->
<g id="edge6" class="edge">
<title>css.ts&#45;&gt;style.ts</title>
<path fill="none" stroke="#757575" d="M329.88,-199.84C359.56,-186.21 408.85,-163.57 441.99,-148.35"/>
<polygon fill="#757575" stroke="#757575" points="443.67,-151.43 451.3,-144.08 440.75,-145.07 443.67,-151.43"/>
</g>
<!-- helpers.ts&#45;&gt;types.ts -->
<g id="edge8" class="edge">
<title>helpers.ts&#45;&gt;types.ts</title>
<path fill="none" stroke="#757575" d="M515.26,-259.28C541.9,-265.64 577.92,-274.24 605.41,-280.81"/>
<polygon fill="#757575" stroke="#757575" points="604.95,-284.3 615.49,-283.21 606.58,-277.49 604.95,-284.3"/>
</g>
<!-- style.ts&#45;&gt;StyleSheet.ts -->
<g id="edge24" class="edge">
<title>style.ts&#45;&gt;StyleSheet.ts</title>
<path fill="none" stroke="#757575" d="M502.5,-120.89C531.48,-106.88 580.38,-83.23 612.92,-67.5"/>
<polygon fill="#757575" stroke="#757575" points="614.57,-70.59 622.05,-63.08 611.52,-64.29 614.57,-70.59"/>
</g>
<!-- style.ts&#45;&gt;getUniqueId.ts -->
<g id="edge25" class="edge">
<title>style.ts&#45;&gt;getUniqueId.ts</title>
<path fill="none" stroke="#757575" d="M507.29,-132.5C528.52,-132.5 558.17,-132.5 584.61,-132.5"/>
<polygon fill="#757575" stroke="#757575" points="584.94,-136 594.94,-132.5 584.94,-129 584.94,-136"/>
</g>
<!-- index.tsx -->
<g id="node11" class="node">
<title>index.tsx</title>
<path fill="none" stroke="#c6c5fe" d="M62.33,-163C62.33,-163 7.67,-163 7.67,-163 3.83,-163 0,-159.17 0,-155.33 0,-155.33 0,-147.67 0,-147.67 0,-143.83 3.83,-140 7.67,-140 7.67,-140 62.33,-140 62.33,-140 66.17,-140 70,-143.83 70,-147.67 70,-147.67 70,-155.33 70,-155.33 70,-159.17 66.17,-163 62.33,-163"/>
<text text-anchor="middle" x="35" y="-147.8" font-family="Arial" font-size="14.00" fill="#c6c5fe">index.tsx</text>
</g>
<!-- index.tsx&#45;&gt;component.tsx -->
<g id="edge9" class="edge">
<title>index.tsx&#45;&gt;component.tsx</title>
<path fill="none" stroke="#757575" d="M70.17,-157.12C78.23,-158.45 87.06,-159.9 95.92,-161.36"/>
<polygon fill="#757575" stroke="#757575" points="95.45,-164.83 105.89,-163 96.59,-157.93 95.45,-164.83"/>
</g>
<!-- index.tsx&#45;&gt;makeClasses.ts -->
<g id="edge13" class="edge">
<title>index.tsx&#45;&gt;makeClasses.ts</title>
<path fill="none" stroke="#757575" d="M70.02,-149.07C111.86,-146.09 183.79,-140.96 236.59,-137.2"/>
<polygon fill="#757575" stroke="#757575" points="237.16,-140.67 246.88,-136.47 236.66,-133.69 237.16,-140.67"/>
</g>
<!-- index.tsx&#45;&gt;types.ts -->
<g id="edge15" class="edge">
<title>index.tsx&#45;&gt;types.ts</title>
<path fill="none" stroke="#757575" d="M41.51,-163.15C51.48,-182.89 74.44,-222.81 106,-243.5 216.98,-316.25 264.26,-298.61 396,-314.5 467.92,-323.18 487.21,-324.22 559,-314.5 574.52,-312.4 591.18,-308.28 605.72,-304.04"/>
<polygon fill="#757575" stroke="#757575" points="606.86,-307.35 615.42,-301.11 604.83,-300.65 606.86,-307.35"/>
</g>
<!-- index.tsx&#45;&gt;css.ts -->
<g id="edge10" class="edge">
<title>index.tsx&#45;&gt;css.ts</title>
<path fill="none" stroke="#757575" d="M51.19,-163.04C64.77,-172.69 85.63,-185.91 106,-192.5 159.88,-209.94 226.07,-212.79 266.23,-212.61"/>
<polygon fill="#757575" stroke="#757575" points="266.39,-216.11 276.35,-212.5 266.31,-209.11 266.39,-216.11"/>
</g>
<!-- index.tsx&#45;&gt;helpers.ts -->
<g id="edge12" class="edge">
<title>index.tsx&#45;&gt;helpers.ts</title>
<path fill="none" stroke="#757575" d="M44.99,-163.1C57.1,-177.8 80.14,-202.64 106,-214.5 213.5,-263.79 356.64,-261.01 429.53,-255.41"/>
<polygon fill="#757575" stroke="#757575" points="430.08,-258.88 439.76,-254.57 429.5,-251.9 430.08,-258.88"/>
</g>
<!-- index.tsx&#45;&gt;getUniqueClassName.ts -->
<g id="edge11" class="edge">
<title>index.tsx&#45;&gt;getUniqueClassName.ts</title>
<path fill="none" stroke="#757575" d="M70.15,-143.06C81.54,-140.28 94.3,-137.21 106,-134.5 213.41,-109.57 338.75,-82.19 412.66,-66.22"/>
<polygon fill="#757575" stroke="#757575" points="413.7,-69.57 422.74,-64.04 412.22,-62.73 413.7,-69.57"/>
</g>
<!-- server.tsx -->
<g id="node12" class="node">
<title>server.tsx</title>
<path fill="none" stroke="#c6c5fe" d="M506.83,-23C506.83,-23 448.17,-23 448.17,-23 444.33,-23 440.5,-19.17 440.5,-15.33 440.5,-15.33 440.5,-7.67 440.5,-7.67 440.5,-3.83 444.33,0 448.17,0 448.17,0 506.83,0 506.83,0 510.67,0 514.5,-3.83 514.5,-7.67 514.5,-7.67 514.5,-15.33 514.5,-15.33 514.5,-19.17 510.67,-23 506.83,-23"/>
<text text-anchor="middle" x="477.5" y="-7.8" font-family="Arial" font-size="14.00" fill="#c6c5fe">server.tsx</text>
</g>
<!-- index.tsx&#45;&gt;server.tsx -->
<g id="edge14" class="edge">
<title>index.tsx&#45;&gt;server.tsx</title>
<path fill="none" stroke="#757575" d="M51.04,-139.81C64.7,-129.7 85.75,-115.36 106,-106.5 217.2,-57.88 358.46,-30.26 430.18,-18.44"/>
<polygon fill="#757575" stroke="#757575" points="430.94,-21.86 440.25,-16.81 429.82,-14.95 430.94,-21.86"/>
</g>
<!-- vars.ts -->
<g id="node13" class="node">
<title>vars.ts</title>
<path fill="none" stroke="#cfffac" d="M178.83,-26C178.83,-26 138.17,-26 138.17,-26 134.33,-26 130.5,-22.17 130.5,-18.33 130.5,-18.33 130.5,-10.67 130.5,-10.67 130.5,-6.83 134.33,-3 138.17,-3 138.17,-3 178.83,-3 178.83,-3 182.67,-3 186.5,-6.83 186.5,-10.67 186.5,-10.67 186.5,-18.33 186.5,-18.33 186.5,-22.17 182.67,-26 178.83,-26"/>
<text text-anchor="middle" x="158.5" y="-10.8" font-family="Arial" font-size="14.00" fill="#cfffac">vars.ts</text>
</g>
<!-- index.tsx&#45;&gt;vars.ts -->
<g id="edge16" class="edge">
<title>index.tsx&#45;&gt;vars.ts</title>
<path fill="none" stroke="#757575" d="M40.87,-139.67C50.44,-117.65 73.63,-69.93 106,-40.5 110.51,-36.4 115.79,-32.78 121.21,-29.64"/>
<polygon fill="#757575" stroke="#757575" points="123.15,-32.58 130.37,-24.82 119.89,-26.38 123.15,-32.58"/>
</g>
<!-- server.tsx&#45;&gt;StyleSheet.ts -->
<g id="edge22" class="edge">
<title>server.tsx&#45;&gt;StyleSheet.ts</title>
<path fill="none" stroke="#757575" d="M514.85,-20.18C536.49,-25.35 564.44,-32.02 588.98,-37.88"/>
<polygon fill="#757575" stroke="#757575" points="588.36,-41.33 598.9,-40.25 589.98,-34.52 588.36,-41.33"/>
</g>
<!-- server.tsx&#45;&gt;constants.ts -->
<g id="edge23" class="edge">
<title>server.tsx&#45;&gt;constants.ts</title>
<path fill="none" stroke="#757575" d="M514.69,-13.91C566.99,-17.4 664.06,-23.87 724.75,-27.92"/>
<polygon fill="#757575" stroke="#757575" points="724.69,-31.42 734.9,-28.59 725.16,-24.44 724.69,-31.42"/>
</g>
</g>
</svg>
